<svg width="100" height="91" viewBox="0 0 100 91" fill="none" xmlns="http://www.w3.org/2000/svg">
<path d="M38.697 62.7416C38.697 67.6223 36.4305 75.6088 31.0657 75.6088C25.701 75.6088 23.4344 67.6223 23.4344 62.7416C23.4344 57.861 25.701 49.8745 31.0657 49.8745C36.4305 49.8745 38.697 57.861 38.697 62.7416ZM99.8095 50.9487C99.8095 58.3981 99.1441 66.2912 96.1706 73.1334C88.2898 91.0213 66.6229 90.601 51.1108 90.601C35.3492 90.601 12.393 91.2315 4.20032 73.1334C1.16444 66.3613 0 58.3981 0 50.9487C0 41.1641 2.89032 31.9165 8.62936 24.4204C7.5481 20.7308 7.02825 16.8543 7.02825 13.0245C7.02825 8.00374 8.04714 5.48169 10.0641 0.927979C19.4837 0.927979 25.5138 3.02969 32.6876 9.33482C38.7178 7.72351 44.9143 6.99959 51.1316 6.99959C56.7459 6.99959 62.4017 7.6768 67.8497 9.148C74.9195 2.91293 80.9497 0.927979 90.2652 0.927979C92.303 5.48169 93.3011 8.00374 93.3011 13.0245C93.3011 16.8543 92.7605 20.6607 91.7 24.2803C97.4183 31.8465 99.8095 41.1641 99.8095 50.9487ZM86.4392 62.7416C86.4392 52.49 80.8873 43.4526 71.1559 43.4526C67.2259 43.4526 63.4622 44.2466 59.5114 44.8537C56.4132 45.3908 53.3149 45.601 50.1335 45.601C46.9729 45.601 43.8746 45.3908 40.7556 44.8537C36.8671 44.2466 33.0619 43.4526 29.1111 43.4526C19.3797 43.4526 13.8278 52.49 13.8278 62.7416C13.8278 83.245 30.5459 86.3976 45.1014 86.3976H55.124C69.7419 86.3976 86.4392 83.2683 86.4392 62.7416ZM69.2636 49.8745C63.8989 49.8745 61.6324 57.861 61.6324 62.7416C61.6324 67.6223 63.8989 75.6088 69.2636 75.6088C74.6284 75.6088 76.8949 67.6223 76.8949 62.7416C76.8949 57.861 74.6284 49.8745 69.2636 49.8745Z" fill="black"/>
</svg>
