<svg width="97" height="97" viewBox="0 0 97 97" fill="none" xmlns="http://www.w3.org/2000/svg">
<g clip-path="url(#clip0_15_18)">
<path d="M34.6606 4.51554C18.8629 5.61388 5.43307 6.62397 4.80164 6.74225C3.03125 7.0389 1.42071 8.16727 0.663398 9.65237L0 10.9591L0.0639419 42.103L0.157857 73.2469L1.16894 75.177C1.73842 76.2453 5.59293 81.2338 9.79512 86.3688C18.1056 96.4922 18.705 97.0574 21.8642 97.354C22.7813 97.4423 29.6691 97.1456 37.1263 96.7307C44.6155 96.2857 56.6206 95.6023 63.8261 95.2174C94.6002 93.462 93.0196 93.6103 94.788 92.1853C97 90.4636 96.8422 93.2836 96.9361 55.4314C97 23.3375 96.968 21.2309 96.4625 20.2508C95.863 19.1525 94.788 18.3809 80.7587 9.11729C71.3753 2.9422 70.7119 2.61551 66.5077 2.55543C64.7712 2.49723 50.4263 3.38717 34.6606 4.51554ZM70.1743 8.5822C71.5011 9.14545 81.2023 15.4989 82.6231 16.7174C83.0027 17.0741 83.1286 17.3708 82.9388 17.5491C82.4972 17.9059 22.4616 21.2609 20.7252 21.0225C19.9359 20.9042 18.767 20.4592 18.1036 20.0424C15.3541 18.2907 8.53026 13.0356 8.53026 12.6507C8.53026 11.6406 8.30846 11.6406 35.0722 9.83074C40.1915 9.50405 48.5959 8.91076 53.7153 8.524C64.8032 7.69227 68.1222 7.72231 70.1743 8.5822ZM89.259 24.8225C89.7006 25.2375 90.0803 26.0392 90.2062 26.8108C90.3001 27.5243 90.364 40.8245 90.3001 56.3213C90.2062 82.9217 90.1742 84.5852 89.6367 85.3568C89.321 85.8318 88.6896 86.3369 88.214 86.4852C86.8892 86.9902 23.9802 90.3453 22.6854 89.9886C22.086 89.8403 21.2627 89.3653 20.8211 88.9503L20.0618 88.1787L19.9679 59.4999C19.9039 39.3713 19.9679 30.4644 20.2217 29.6627C20.4115 29.0694 20.8851 28.356 21.2967 28.1194C21.8662 27.7627 25.5948 27.4661 38.4231 26.7545C47.429 26.2795 61.3623 25.4778 69.3571 25.0328C88.3738 23.9326 88.3119 23.9326 89.259 24.8225Z" fill="black"/>
<path d="M72.3544 34.6494C68.9415 34.8578 65.9082 35.1545 65.5605 35.3328C64.5175 35.8379 63.8861 36.6696 63.7602 37.6196C63.6663 38.5997 63.982 38.718 67.3929 39.1047L68.8775 39.2831V51.9599C68.8775 59.5 68.7516 64.4885 68.5938 64.3402C68.4359 64.1618 63.95 57.7501 58.6088 50.09C53.2697 42.4016 48.8457 36.0763 48.7818 36.0181C48.7178 35.958 45.243 36.1364 41.0727 36.4049C35.9534 36.7316 33.1419 37.0282 32.5725 37.3248C31.6553 37.7698 30.6442 39.3432 30.6442 40.3833C30.6442 41.0066 31.8451 41.3333 34.3728 41.3333H35.6996V77.7905L33.5516 78.4139C31.8771 78.8889 31.3076 79.1855 31.0239 79.7788C30.5183 80.7889 30.5503 81.7089 31.0558 81.7089C31.2457 81.7089 34.8164 81.5005 38.9227 81.2639C47.0433 80.8189 47.9585 80.6105 48.8117 79.0372C49.0655 78.5622 49.2853 78.0571 49.2853 77.9088C49.2853 77.7905 48.1803 77.4338 46.8515 77.1372C45.4927 76.8405 44.134 76.5439 43.8502 76.4838C43.3127 76.3355 43.2807 75.4155 43.2807 62.6485V48.9616L52.886 63.1235C62.9649 77.967 64.2297 79.6605 65.7783 80.4021C67.7066 81.3522 72.6041 80.6988 75.0679 79.1855L75.8272 78.7406L75.8912 58.4936L75.9851 38.2167L77.6596 37.92C79.6498 37.5633 80.5669 36.7034 80.5669 35.2183C80.5669 34.2683 80.503 34.2082 79.5558 34.2382C78.9904 34.2627 75.7353 34.441 72.3544 34.6494Z" fill="black"/>
</g>
<defs>
<clipPath id="clip0_15_18">
<rect width="97" height="97" fill="white"/>
</clipPath>
</defs>
</svg>
